# xmcd CD database file
#
# Track frame offsets:
#	150
#	14597
#	30038
#	48769
#	63710
#	78977
#	92186
#	106240
#	120745
#	134402
#	142401
#	156541
#
# Disc length: 2298 seconds
#
# Revision: 1
# Processed by: cddbd v1.4PL0 Copyright (c) Steve Scherf et al.
# Submitted via: CDex 1.51
#
DISCID=a508f80c
DTITLE=Billie Holiday - Lover Man
DYEAR=2000
DGENRE=Blues
TTITLE0=Baby I Don't Cry Over You
TTITLE1=I Cover The Waterfront
TTITLE2=They Can't Take That Away From Me
TTITLE3=Lover Man
TTITLE4=Don't Explain
TTITLE5=My Man
TTITLE6=Billie's Blues
TTITLE7=He's Funny That Way
TTITLE8=Miss Brown To You
TTITLE9=Swing Brother Swing
TTITLE10=Mean To Me
TTITLE11=Do Nothing Till You Hear From Me
EXTD=YEAR: 2000
EXTT0=
EXTT1=
EXTT2=
EXTT3=
EXTT4=
EXTT5=
EXTT6=
EXTT7=
EXTT8=
EXTT9=
EXTT10=
EXTT11=
PLAYORDER=
